<svg xmlns="http://www.w3.org/2000/svg" viewBox="0 0 200 57.6"><style>.a{fill:#3D3D3D;}.b{fill:#C52D25;}</style><path d="M75 19.8v4.3h-1.7v-7.9H75v1.4c0.2-0.5 0.6-0.9 1.1-1.1 0.5-0.3 1-0.4 1.5-0.4 1.2 0 2.1 0.5 2.5 1.5 0.8-1 1.8-1.5 2.9-1.5 0.9 0 1.6 0.3 2.2 0.8 0.5 0.5 0.8 1.3 0.8 2.4v4.8h-1.7v-4.3c0-1.5-0.6-2.2-1.8-2.2 -0.6 0-1.1 0.2-1.5 0.5 -0.4 0.4-0.6 0.9-0.7 1.6v4.4h-1.7v-4.3c0-0.8-0.1-1.3-0.4-1.7 -0.3-0.4-0.7-0.5-1.3-0.5 -0.6 0-1.1 0.2-1.5 0.6C75.3 18.5 75 19.1 75 19.8z" class="a"/><path d="M94.9 20.9h-6.2c0 0.6 0.3 1 0.8 1.4 0.5 0.4 1 0.5 1.7 0.5 1 0 1.7-0.3 2.3-0.9l0.9 1c-0.9 0.9-2 1.3-3.3 1.3 -1.1 0-2-0.4-2.8-1.1 -0.8-0.7-1.2-1.7-1.2-3 0-1.2 0.4-2.2 1.2-3 0.8-0.7 1.7-1.1 2.8-1.1 1.1 0 2 0.3 2.7 1 0.8 0.6 1.1 1.5 1.1 2.7V20.9zM88.7 19.6h4.5c0-0.7-0.2-1.2-0.6-1.5 -0.4-0.4-0.9-0.5-1.5-0.5 -0.6 0-1.2 0.2-1.6 0.6C88.9 18.5 88.7 19 88.7 19.6z" class="a"/><path d="M101.3 20.5v-4.3h1.7v7.9h-1.7v-1.4c-0.3 0.5-0.6 0.9-1.1 1.1 -0.5 0.3-1 0.4-1.5 0.4 -0.9 0-1.6-0.3-2.2-0.8 -0.5-0.5-0.8-1.3-0.8-2.4v-4.8h1.7v4.3c0 1.5 0.6 2.2 1.8 2.2 0.6 0 1.1-0.2 1.5-0.6C101.1 21.8 101.3 21.2 101.3 20.5z" class="a"/><path d="M66.7 40.1c1.3 0 2.5-0.6 3.5-1.9l2.3 2.6c-1.8 1.9-3.7 2.8-5.8 2.8 -2.1 0-3.9-0.7-5.3-2 -1.4-1.3-2.2-3-2.2-5.2 0-2.1 0.7-3.9 2.2-5.2 1.5-1.3 3.2-2 5.2-2 1 0 2 0.2 3 0.6 1 0.4 1.9 1 2.7 1.8l-2 2.6c-0.4-0.5-1-1-1.6-1.2 -0.6-0.3-1.3-0.4-1.9-0.4 -1 0-1.9 0.3-2.6 1 -0.7 0.7-1.1 1.6-1.1 2.8 0 1.2 0.4 2.1 1.1 2.8C64.8 39.8 65.7 40.1 66.7 40.1z" class="a"/><path d="M88.1 36.4c0 2-0.7 3.7-2.1 5.1 -1.4 1.4-3.2 2.1-5.3 2.1 -2.1 0-3.9-0.7-5.3-2.1 -1.4-1.4-2.1-3.1-2.1-5.1s0.7-3.7 2.1-5.1c1.4-1.4 3.2-2.1 5.3-2.1 2.1 0 3.9 0.7 5.3 2.1C87.4 32.6 88.1 34.3 88.1 36.4zM77.3 36.4c0 1.1 0.3 2.1 1 2.8 0.6 0.7 1.5 1.1 2.5 1.1 1 0 1.8-0.4 2.5-1.1 0.6-0.7 1-1.6 1-2.8 0-1.1-0.3-2.1-1-2.8 -0.6-0.7-1.5-1.1-2.5-1.1 -1 0-1.8 0.4-2.5 1.1C77.6 34.3 77.3 35.2 77.3 36.4z" class="a"/><path d="M93.8 35.6v7.8h-3.9V29.4h3.9V31c1.2-1.2 2.5-1.8 4-1.8 1.5 0 2.7 0.5 3.7 1.6 1 1 1.5 2.4 1.5 4.1v8.5h-3.9v-7.9c0-2.1-0.8-3.2-2.4-3.2 -0.8 0-1.5 0.3-2 0.8C94.1 33.7 93.8 34.5 93.8 35.6z" class="a"/><path d="M111.1 43.5c-1.7 0-3.1-0.7-4.4-2.1 -1.3-1.4-1.9-3.1-1.9-5.2s0.6-3.8 1.9-5.1c1.3-1.3 2.7-2 4.4-2 1.7 0 3.1 0.6 4.1 1.8v-6.8h3.9v19.2h-3.9v-1.8C114.2 42.8 112.8 43.5 111.1 43.5zM108.7 36.4c0 1.1 0.3 2 1 2.8 0.7 0.7 1.5 1.1 2.4 1.1 0.9 0 1.7-0.4 2.3-1.1 0.6-0.7 0.9-1.6 0.9-2.8 0-1.1-0.3-2.1-0.9-2.8 -0.6-0.8-1.4-1.1-2.3-1.1 -0.9 0-1.7 0.4-2.4 1.1C109 34.3 108.7 35.2 108.7 36.4z" class="a"/><path d="M135.7 36.3c0 2-0.7 3.7-2.1 5.1 -1.4 1.4-3.2 2.1-5.3 2.1 -2.1 0-3.9-0.7-5.3-2.1 -1.4-1.4-2.1-3.1-2.1-5.1s0.7-3.7 2.1-5.1c1.4-1.4 3.2-2.1 5.3-2.1 2.1 0 3.9 0.7 5.3 2.1C135 32.6 135.7 34.3 135.7 36.3zM124.9 36.3c0 1.1 0.3 2.1 1 2.8 0.6 0.7 1.5 1.1 2.5 1.1 1 0 1.8-0.4 2.5-1.1 0.6-0.7 1-1.6 1-2.8 0-1.1-0.3-2.1-1-2.8s-1.5-1.1-2.5-1.1c-1 0-1.8 0.4-2.5 1.1C125.2 34.3 124.9 35.2 124.9 36.3z" class="a"/><path d="M140.4 35.9v7.5h-2.9V29.5h2.9v2.5c0.4-0.8 1-1.5 1.9-2 0.8-0.5 1.7-0.7 2.7-0.7 2.2 0 3.7 0.9 4.4 2.7 1.4-1.8 3.1-2.7 5.1-2.7 1.6 0 2.8 0.5 3.8 1.4 1 1 1.4 2.3 1.4 4.1v8.5h-2.9v-7.6c0-2.5-1.1-3.8-3.2-3.8 -1 0-1.8 0.3-2.6 0.9 -0.7 0.6-1.1 1.6-1.2 2.8v7.7H147v-7.6c0-1.3-0.2-2.3-0.7-2.9 -0.5-0.6-1.2-0.9-2.2-0.9 -1 0-1.9 0.3-2.6 1C140.8 33.6 140.4 34.6 140.4 35.9z" class="a"/><path d="M169.2 35.9v7.5h-2.9V29.5h2.9v2.5c0.5-0.8 1.1-1.5 1.9-2 0.8-0.5 1.7-0.7 2.7-0.7 1.6 0 2.8 0.5 3.8 1.4 1 1 1.4 2.3 1.4 4.1v8.5h-2.9v-7.6c0-2.5-1.1-3.8-3.2-3.8 -1 0-1.9 0.3-2.6 1C169.5 33.6 169.2 34.6 169.2 35.9z" class="a"/><path d="M197.9 41.5c-1.4 1.4-3.1 2.1-5.2 2.1s-3.8-0.7-5.2-2.1c-1.4-1.4-2.1-3.1-2.1-5 0-2 0.7-3.7 2.1-5 1.4-1.4 3.1-2.1 5.2-2.1s3.8 0.7 5.2 2.1c1.4 1.4 2.1 3.1 2.1 5C200 38.4 199.3 40.1 197.9 41.5zM189.6 39.7c0.8 0.8 1.9 1.3 3.1 1.3 1.3 0 2.3-0.4 3.1-1.3 0.8-0.8 1.2-1.9 1.2-3.3 0-1.3-0.4-2.4-1.2-3.3 -0.8-0.8-1.9-1.3-3.1-1.3 -1.3 0-2.3 0.4-3.1 1.3 -0.8 0.8-1.2 1.9-1.2 3.3C188.4 37.8 188.8 38.9 189.6 39.7z" class="a"/><path d="M183.7 43.3h-2.9V29.5h2.9V43.3z" class="a"/><polygon points="180.8 24.9 182.2 24.1 183.7 24.9 183.7 26.6 182.2 27.5 180.8 26.6 " class="a"/><path d="M161.5 29.5h2.9v13.8h-2.9V29.5z" class="a"/><polygon points="163.4 24.1 166.8 24.1 164.4 27.1 161.5 27.1 " class="a"/><polygon points="39 37 28.8 42.9 39.4 49 49.6 43.1 49.6 30.8 49.5 30.8 39 36.8 " fill="#FEC658"/><polygon points="35.3 51.5 10.5 36.9 10.2 37.4 10.2 48.7 10.5 49.2 24.6 57.6 " fill="#40A96A"/><polygon points="29.9 19.8 24.8 22.7 19.7 19.8 19.7 19.8 14.5 22.8 14.5 34.6 24.8 40.5 35 34.6 35 22.8 " fill="#ED392F"/><polygon points="29.3 29.4 25.8 31.4 25.8 29.3 29.3 27.3 " class="b"/><polygon points="34 26.7 30.5 28.7 30.5 26.6 34 24.6 " class="b"/><polygon points="29.3 32.6 25.8 34.6 25.8 32.5 29.3 30.5 " class="b"/><polygon points="34 29.8 30.5 31.9 30.5 29.8 34 27.7 " class="b"/><polygon points="29.3 35.7 25.8 37.7 25.8 35.6 29.3 33.6 " class="b"/><polygon points="34 33 30.5 35 30.5 32.9 34 30.9 " class="b"/><polygon points="10.5 22.7 0 16.4 0 43 10.5 49.2 10.5 36.9 " fill="#46B974"/><polygon points="2 13.1 12.6 19.3 24.7 12.3 24.7 12.1 14.4 6.2 14.1 6.2 " fill="#0097CF"/><polygon points="24.8 0 14.1 6.2 24.7 12.3 37 19.4 47.6 13.2 " fill="#00A5E2"/><polygon points="49.6 16.7 39 22.9 39 37 49.6 30.8 " fill="#E6B350"/></svg>